<?xml version="1.0" encoding="UTF-8"?>
<!-- Created with Inkscape (http://www.inkscape.org/) -->
<svg width="40" height="40" version="1.1" viewBox="0 0 10.583 10.583" xml:space="preserve" xmlns="http://www.w3.org/2000/svg"><g/><g transform="translate(.31476 .25164)"><path d="m0.48989 1.3498v7.3484h0.81597v-6.5221h4.8984v-0.79375h-4.8984v-0.032556zm6.5443 0.032556v5.6818h1.6361v0.84026h-2.4779v-1.6526h-0.79375v0.018603h-0.84181v-0.018603h-0.79375v1.6526h-0.84801v-2.4738h2.4836v0.021704h0.79375v-0.021704h0.011886v-0.79375h-0.011886v-0.83251h0.011886v-0.79375h-0.011886v-0.016537h-0.79375v0.016537h-3.2773v0.79375h3.2773v0.83251h-3.2773v4.0613h1.6418v0.011369h0.79375v-0.011369h0.84181v0.011369h0.79375v-0.011369h2.4779v0.011369h0.79375v-2.4577h-0.79375v0.018603h-0.84233v-4.8881zm1.6268 0v4.0556h0.79375v-4.0556zm-4.1041 5.6818h0.84181v0.84026h-0.84181z" fill="#ececec" stroke-width=".25449"/><g fill="#dc531b" stroke-width=".26458"><rect x=".48979" y="8.698" width=".81631" height=".80388"/><rect x="2.1214" y="8.698" width=".79375" height=".80388"/><rect x="8.6608" y=".57822" width=".79375" height=".80388"/></g></g></svg>
